<svg version="1.1" id="Layer_1" xmlns="http://www.w3.org/2000/svg" xmlns:xlink="http://www.w3.org/1999/xlink" x="0px" y="0px"
	 width="100%" viewBox="0 0 1024 672" enable-background="new 0 0 1024 672" xml:space="preserve">
<path fill="#000000" opacity="1.000000" stroke="none" 
	d="
M712.738647,368.071686 
	C712.743408,366.252045 712.757874,364.919464 712.750854,363.587036 
	C712.712769,356.366333 709.985413,353.223358 703.708740,353.158203 
	C697.201782,353.090637 692.489502,357.350861 692.381287,363.843567 
	C692.223022,373.334961 692.349976,382.831055 692.350464,392.325165 
	C692.350891,400.819885 692.194336,409.318359 692.407288,417.807678 
	C692.507263,421.793213 691.348633,423.515350 687.076294,423.407349 
	C677.421570,423.163330 667.754578,423.194000 658.097229,423.369690 
	C654.343811,423.437988 653.043030,421.820953 653.047241,418.346741 
	C653.084595,387.539795 653.118286,356.732758 653.051086,325.925934 
	C653.043213,322.361389 654.531372,321.293793 657.872192,321.497528 
	C669.296936,322.194153 680.788208,320.554749 692.201660,322.669281 
	C694.877258,323.164917 697.814209,322.022675 700.615723,322.111542 
	C707.382263,322.326294 713.178528,325.174255 718.210999,329.537109 
	C720.380676,331.418091 722.016357,331.976685 724.661194,329.992126 
	C734.042175,322.953186 743.914246,323.106506 753.449585,329.512512 
	C757.122742,331.980225 759.437134,331.370270 762.609009,328.873566 
	C772.922119,320.755646 784.238953,319.961609 795.862000,325.681305 
	C807.100830,331.211914 812.435181,340.465118 812.351807,353.066803 
	C812.210815,374.386017 812.160156,395.708740 812.423950,417.025604 
	C812.487793,422.184387 810.798401,423.649170 805.827576,423.451019 
	C796.846985,423.093170 787.836548,423.135040 778.850769,423.408783 
	C774.279236,423.548004 772.734375,422.002502 772.788330,417.402435 
	C772.999573,399.416595 772.900757,381.426941 772.893982,363.438721 
	C772.891296,356.274445 771.229797,353.857483 766.054504,353.314117 
	C760.001404,352.678589 755.302856,356.101044 754.190430,362.174622 
	C753.836243,364.108368 753.942505,366.137512 753.941101,368.123047 
	C753.929688,384.612396 753.856140,401.102539 754.007568,417.590546 
	C754.046265,421.795197 752.779541,423.552094 748.289307,423.425415 
	C738.303223,423.143646 728.298950,423.133667 718.312622,423.404755 
	C713.773865,423.527954 712.657471,421.732452 712.700623,417.526978 
	C712.868164,401.205872 712.750122,384.881805 712.738647,368.071686 
z"/>
<path fill="#000000" opacity="1.000000" stroke="none" 
	d="
M471.216797,320.641724 
	C492.983582,323.999054 508.417664,335.327393 516.079285,355.574249 
	C523.398926,374.917450 519.813232,393.074554 506.418152,408.822296 
	C494.059021,423.352112 477.683777,427.879791 459.181122,426.169739 
	C456.740906,425.944244 455.701080,424.632416 455.709259,422.218597 
	C455.741425,412.722473 455.769012,403.225739 455.694733,393.730072 
	C455.664520,389.871826 457.807098,390.110687 460.656708,390.452881 
	C470.986755,391.693390 477.686615,388.326721 481.315582,380.264893 
	C484.208466,373.838348 483.135406,367.815582 478.763641,362.520721 
	C474.518921,357.379730 468.825714,354.914886 462.283386,356.677765 
	C455.737152,358.441711 451.285248,362.808960 450.152466,369.846680 
	C449.784180,372.134735 449.457947,374.461304 449.451874,376.771149 
	C449.379272,404.260071 449.258331,431.749908 449.450348,459.237427 
	C449.484497,464.124969 447.953827,465.582062 443.192902,465.393524 
	C434.876160,465.064087 426.532623,465.173462 418.207825,465.389038 
	C414.246704,465.491577 412.583282,464.377289 412.604126,460.072021 
	C412.751648,429.584503 412.522095,399.094818 412.736420,368.608093 
	C412.904236,344.733246 434.442291,322.570221 458.830292,320.747253 
	C462.801819,320.450348 466.793488,319.886963 471.216797,320.641724 
z"/>
<path fill="#000000" opacity="1.000000" stroke="none" 
	d="
M182.782410,381.853088 
	C177.294968,351.448242 196.880814,326.920044 223.022156,321.169128 
	C252.746780,314.629944 283.094635,335.163818 287.359375,365.333221 
	C289.319214,379.197357 289.319183,379.189240 275.490845,379.191223 
	C258.994019,379.193604 242.497162,379.192047 226.000427,379.233307 
	C219.992584,379.248322 218.587997,381.787018 221.620361,386.970703 
	C226.958679,396.096313 239.894684,398.198486 248.433731,390.599152 
	C252.474396,387.003113 255.448776,387.118713 259.744171,389.497009 
	C267.139618,393.591797 274.814484,397.181976 282.329926,400.962708 
	C276.617310,414.795532 253.234497,426.479950 234.654236,425.160583 
	C207.899704,423.260834 189.582550,408.101501 182.782410,381.853088 
M222.505402,355.071808 
	C221.209854,356.813690 219.524887,358.661560 220.621887,360.902557 
	C221.789642,363.288055 224.358398,362.522003 226.457825,362.538208 
	C231.941162,362.580536 237.425430,362.638031 242.908051,362.576904 
	C245.178085,362.551636 248.001740,362.955566 248.950272,360.253693 
	C249.858337,357.667023 248.204437,355.421906 246.483475,353.572693 
	C240.843124,347.512024 227.118484,347.337830 222.505402,355.071808 
z"/>
<path fill="#000000" opacity="1.000000" stroke="none" 
	d="
M830.822388,404.113586 
	C817.049316,385.749634 816.009155,361.523071 828.002808,342.951202 
	C839.163757,325.668823 862.063293,316.572510 883.158020,321.042297 
	C905.226929,325.718475 921.604919,342.823608 925.037964,364.781372 
	C927.193420,378.567810 926.641724,379.227844 913.004578,379.212067 
	C896.519348,379.192993 880.034119,379.150696 863.549011,379.193237 
	C861.494080,379.198547 858.878845,378.434082 857.734436,380.899902 
	C856.716125,383.093903 858.166199,385.096832 859.298462,386.934021 
	C864.917664,396.052368 878.310486,398.250854 886.217285,390.639160 
	C890.244019,386.762756 893.155151,387.097656 897.421204,389.537109 
	C904.746094,393.725769 912.351318,397.424164 919.847900,401.333130 
	C903.020081,430.338654 853.634460,434.410797 830.822388,404.113586 
M864.053284,362.612335 
	C871.595093,362.277344 879.220276,363.410706 886.651367,361.746033 
	C886.843567,354.869995 882.053467,349.902985 875.005859,349.242065 
	C865.281860,348.330170 859.361511,352.479767 858.153442,361.106903 
	C859.539856,362.538666 861.398987,362.469940 864.053284,362.612335 
z"/>
<path fill="#000000" opacity="1.000000" stroke="none" 
	d="
M363.347107,361.296722 
	C352.606049,351.556915 340.906097,352.563538 334.406677,363.504089 
	C329.795197,371.266663 331.908478,380.946198 339.451691,386.612091 
	C346.224121,391.699036 356.549866,390.994873 362.015015,384.286896 
	C365.078094,380.527222 368.369965,379.665314 372.786133,379.793488 
	C380.771729,380.025299 388.769287,379.820374 396.761688,379.848694 
	C402.066284,379.867462 402.800049,380.569489 401.204132,385.719757 
	C394.799164,406.389282 381.164978,419.573364 359.825134,423.951569 
	C330.032166,430.063995 302.557983,411.595001 296.488770,381.757812 
	C290.810760,353.843750 308.881134,326.937836 337.324158,320.955933 
	C363.515717,315.447540 388.838593,328.649567 399.243164,353.283356 
	C400.015869,355.112793 400.594971,357.047119 401.043915,358.983734 
	C401.505402,360.974792 400.631165,362.341431 398.481445,362.278717 
	C386.876923,361.940308 375.237732,363.237427 363.347107,361.296722 
z"/>
<path fill="#000000" opacity="1.000000" stroke="none" 
	d="
M121.643021,333.493439 
	C121.693138,327.931213 119.110138,325.956879 114.094925,326.221832 
	C109.279366,326.476227 104.434959,326.140656 99.611938,326.310974 
	C95.666504,326.450287 93.745750,325.015076 93.811623,320.853607 
	C93.935478,313.029449 93.879066,305.200714 93.775566,297.375488 
	C93.734192,294.247345 94.949265,292.825287 98.175415,292.830597 
	C125.484642,292.875366 152.793991,292.867523 180.103241,292.829590 
	C183.544815,292.824829 185.363831,294.063965 185.315247,297.795471 
	C185.213409,305.619904 185.239243,313.448334 185.372025,321.272430 
	C185.433731,324.907166 183.881958,326.394165 180.292191,326.291901 
	C175.466721,326.154419 170.634750,326.213104 165.805817,326.238190 
	C159.338486,326.271759 158.257660,327.289001 158.246124,333.803650 
	C158.198059,360.946686 158.209290,388.089783 158.189148,415.232880 
	C158.183090,423.398193 158.168945,423.368225 149.960709,423.331360 
	C142.300903,423.296936 134.636185,423.179321 126.982635,423.404572 
	C122.833733,423.526672 121.556122,421.948456 121.576271,417.864288 
	C121.714264,389.889343 121.649506,361.913361 121.643021,333.493439 
z"/>
<path fill="#000000" opacity="1.000000" stroke="none" 
	d="
M546.208862,331.170898 
	C559.068054,321.036987 573.785217,318.627441 589.238953,318.780273 
	C591.744202,318.805084 592.947266,320.098877 592.916565,322.475494 
	C592.796204,331.782104 592.579956,341.087433 592.464172,350.394104 
	C592.432678,352.925049 591.069031,353.738159 588.789307,354.166718 
	C577.702759,356.250854 573.470764,361.198395 573.345154,372.600922 
	C573.183899,387.242706 573.283081,401.887238 573.243164,416.530487 
	C573.224792,423.278198 573.165649,423.325928 566.663086,423.330902 
	C556.512512,423.338654 546.360657,423.225433 536.212158,423.367462 
	C532.724487,423.416260 530.992859,422.474762 531.069824,418.630707 
	C531.446289,399.842682 530.216064,381.036926 531.653625,362.259094 
	C532.576477,350.205750 536.660645,339.599152 546.208862,331.170898 
z"/>
<path fill="#000000" opacity="1.000000" stroke="none" 
	d="
M602.660645,408.993256 
	C602.660156,379.724457 602.660156,350.953949 602.660156,322.581116 
	C604.845215,321.154663 606.549316,321.641998 608.175354,321.617676 
	C616.835083,321.487915 625.505554,321.610321 634.151062,321.199402 
	C638.206726,321.006653 639.406616,322.417175 639.393311,326.268341 
	C639.287354,356.924927 639.274048,387.582001 639.336853,418.238739 
	C639.344055,421.738190 638.369507,423.457001 634.545532,423.386475 
	C625.384827,423.217499 616.218140,423.243530 607.055847,423.352051 
	C603.879456,423.389648 602.468201,422.252777 602.636719,418.986847 
	C602.799622,415.829742 602.665039,412.657288 602.660645,408.993256 
z"/>
<path fill="#000000" opacity="1.000000" stroke="none" 
	d="
M677.508789,286.508728 
	C666.170654,275.945129 655.191833,265.507538 643.942627,255.370026 
	C640.384766,252.163773 638.541382,248.698166 637.947205,243.921722 
	C636.833984,234.973389 637.787415,227.280884 645.794067,221.407272 
	C650.589050,217.889740 654.663513,213.368042 658.933350,209.167068 
	C660.705811,207.423187 662.160339,207.092361 663.975891,208.979218 
	C665.125122,210.173676 666.474915,211.172577 667.699280,212.297943 
	C671.128906,215.450394 671.257874,220.408493 667.874451,223.720169 
	C665.498901,226.045334 662.889893,228.130615 660.487122,230.429672 
	C655.092529,235.591385 654.899414,240.997162 660.292664,246.249420 
	C666.368286,252.166229 672.802551,257.713196 678.955505,263.552979 
	C681.323059,265.799988 683.367126,266.131226 685.816223,263.802277 
	C692.569092,257.380493 699.549683,251.188141 706.108765,244.576233 
	C710.072632,240.580460 709.519104,234.876297 705.363098,230.930069 
	C703.072693,228.755295 700.750000,226.585175 698.240295,224.678162 
	C695.142761,222.324478 694.272217,219.292389 695.424438,215.846802 
	C696.764160,211.840027 700.167053,209.536682 703.706665,207.693298 
	C704.970703,207.034973 706.083374,208.559525 707.023743,209.475708 
	C713.103943,215.399551 719.180481,221.327271 725.219116,227.293335 
	C726.032898,228.097336 726.824951,229.034393 727.288879,230.062454 
	C729.448059,234.846954 726.519836,250.285095 722.683777,253.914871 
	C710.352966,265.582489 697.864807,277.085358 685.633301,288.855530 
	C681.376282,292.951996 680.109741,288.427856 677.508789,286.508728 
z"/>
<path fill="#000000" opacity="1.000000" stroke="none" 
	d="
M660.446533,204.415527 
	C654.759827,203.578278 652.386597,199.457535 652.654236,191.498047 
	C654.403625,190.156784 656.467224,190.703018 658.412537,190.676636 
	C675.394348,190.446442 692.385254,191.192261 709.359497,190.233566 
	C712.775391,190.040604 713.885010,191.331802 713.040649,194.713669 
	C710.723206,203.994659 709.561401,204.918655 700.067017,204.336029 
	C692.425049,203.867065 691.490723,205.168350 691.670227,212.613052 
	C691.906677,222.416214 691.545837,232.237656 691.279785,242.046829 
	C691.195679,245.149948 685.467224,250.953400 682.840759,251.024170 
	C679.975830,251.101364 674.129333,244.917694 674.082458,241.287964 
	C673.964050,232.129898 673.927063,222.964249 674.168884,213.809860 
	C674.405151,204.860733 673.719116,203.993652 664.842285,204.332993 
	C663.512146,204.383850 662.181213,204.412430 660.446533,204.415527 
z"/>
<path fill="#000000" opacity="1.000000" stroke="none" 
	d="
M908.570435,323.365906 
	C900.642151,313.442810 905.182495,301.541656 914.884888,298.072021 
	C921.085449,295.854614 928.558350,298.299805 932.562439,303.911163 
	C936.620605,309.598328 936.185120,317.313873 931.492004,322.877899 
	C927.229248,327.931702 919.726562,329.720184 913.796509,326.918579 
	C912.019592,326.079071 910.473633,324.750610 908.570435,323.365906 
M924.907776,314.465820 
	C925.351929,316.815552 926.549622,318.631561 928.500000,320.006439 
	C933.075317,314.398712 932.646484,308.719666 927.493591,304.108734 
	C922.387878,299.540009 916.127502,299.853424 911.049805,304.931885 
	C907.433899,308.548309 907.016479,315.848267 910.211121,319.600006 
	C914.529236,324.671204 920.791504,325.794312 925.679565,322.054871 
	C922.676758,320.913177 921.784851,317.630707 918.995361,316.077240 
	C918.657288,316.675049 918.326111,317.047729 918.226135,317.474579 
	C917.797607,319.303558 917.413696,321.403259 914.935852,320.942352 
	C912.766724,320.539001 913.120422,318.397736 913.132324,316.824219 
	C913.157410,313.507874 913.394897,310.193451 913.522705,306.877380 
	C913.563110,305.829773 913.706787,304.729858 914.856567,304.475616 
	C918.487732,303.672791 922.264526,303.232239 925.313477,305.819641 
	C928.277954,308.335388 926.859131,311.198730 924.907776,314.465820 
z"/>
</svg>